<svg xmlns:xlink="http://www.w3.org/1999/xlink" height="51px" version="1.1"
    viewBox="0 0 356 51" width="356px" xmlns="http://www.w3.org/2000/svg">
    <defs>
        <path
            d="M70.479,32.949 L37.53,2.13162821e-14 L1.42108547e-14,37.53 L13.347,50.876 L13.45,50.979 C19.306,44.192 27.964,39.891 37.632,39.891 C47.3,39.891 55.958,44.192 61.815,50.979 L75.162,37.633 L70.479,32.949 Z"
            id="path-1" />
        <path
            d="M53.582,29.97 C59.519,29.97 65.209,31.022 70.479,32.948 L37.53,-1.0658141e-14 L2.84217094e-14,37.529 L13.347,50.876 C22.25,38.235 36.947,29.97 53.582,29.97"
            id="path-3" />
        <filter filterUnits="objectBoundingBox" height="133.4%" id="filter-4" width="125.5%"
            x="-6.4%"
            y="-10.8%">
            <feOffset dx="5" dy="3" in="SourceAlpha" result="shadowOffsetOuter1" />
            <feGaussianBlur in="shadowOffsetOuter1" result="shadowBlurOuter1"
                stdDeviation="2" />
            <feColorMatrix
                in="shadowBlurOuter1"
                type="matrix"
                values="0 0 0 0 0.00784313725   0 0 0 0 0.00784313725   0 0 0 0 0.00784313725  0 0 0 0.4 0" />
        </filter>
    </defs>
    <g fill="none" fill-rule="evenodd" id="visual" stroke="none" stroke-width="1">
        <g id="color" transform="translate(-72.000000, -425.000000)">
            <g id="logo-horizontal" transform="translate(72.000000, 425.000000)">
                <g fill="#000000" id="type" transform="translate(93.000000, 10.000000)">
                    <path
                        d="M256.1358,11.9507 C256.1358,14.5377 254.0058,16.6337 251.3788,16.6337 L245.5998,16.6337 L245.5998,6.9487 L251.3788,6.9487 C254.0058,6.9487 256.1358,9.0447 256.1358,11.6317 L256.1358,11.9507 Z M251.3788,0.4917 L239.0408,0.4917 L239.0408,32.7757 L245.5998,32.7757 L245.5998,23.0907 L251.3788,23.0907 C257.6288,23.0907 262.6948,18.1027 262.6948,11.9507 L262.6948,11.6317 C262.6948,5.4797 257.6288,0.4917 251.3788,0.4917 L251.3788,0.4917 Z"
                        id="p" />
                    <polygon id="i"
                        points="211.6128 32.7757 218.1708 32.7757 218.1708 0.4917 211.6128 0.4917">
                    </polygon>
                    <polygon id="h"
                        points="185.0226 0.4917 185.0226 13.6377 173.1956 13.6377 173.1956 0.4917 166.6366 0.4917 166.6366 32.7747 173.1956 32.7747 173.1956 20.0947 185.0226 20.0947 185.0226 32.7747 191.5816 32.7747 191.5816 0.4917">
                    </polygon>
                    <path
                        d="M142.0523,16.189 C141.1043,15.479 140.0393,14.901 138.8833,14.472 C137.7163,14.038 136.5803,13.635 135.5113,13.279 C134.7863,13.049 134.1043,12.814 133.4803,12.581 C132.8783,12.354 132.3463,12.101 131.9063,11.827 C131.4573,11.55 131.1113,11.217 130.8753,10.843 C130.6393,10.464 130.5193,9.988 130.5193,9.427 C130.5193,8.774 130.6703,8.227 130.9693,7.806 C131.2623,7.39 131.6293,7.046 132.0633,6.781 C132.4953,6.52 132.9883,6.339 133.5243,6.247 C134.0543,6.156 134.5813,6.109 135.0983,6.109 C136.1023,6.109 137.1553,6.364 138.2323,6.865 C139.2653,7.344 140.1213,7.993 140.7803,8.795 L145.5103,3.804 C144.1363,2.571 142.5213,1.622 140.7113,0.983 C138.8543,0.331 137.0113,-2.13162821e-14 135.2323,-2.13162821e-14 C133.7473,-2.13162821e-14 132.2573,0.187 130.8053,0.559 C129.3533,0.929 128.0333,1.521 126.8793,2.32 C125.7283,3.119 124.7843,4.15 124.0783,5.388 C123.3713,6.626 123.0133,8.137 123.0133,9.878 C123.0133,11.294 123.2443,12.513 123.7003,13.5 C124.1563,14.487 124.7673,15.336 125.5193,16.027 C126.2723,16.722 127.1423,17.3 128.1003,17.74 C129.0703,18.188 130.0733,18.581 131.0833,18.906 C132.1603,19.245 133.0803,19.547 133.8993,19.83 C134.7263,20.118 135.4323,20.44 135.9943,20.788 C136.5583,21.138 137.0003,21.536 137.3113,21.968 C137.6253,22.407 137.7853,22.946 137.7853,23.57 C137.7853,24.215 137.6583,24.78 137.4113,25.248 C137.1583,25.715 136.8203,26.093 136.4033,26.371 C135.9843,26.65 135.4913,26.853 134.9423,26.974 C134.3953,27.096 133.8263,27.158 133.2523,27.158 C131.9773,27.158 130.6783,26.827 129.3903,26.176 C128.1553,25.55 127.1333,24.765 126.3533,23.84 L121.4843,28.793 C122.8643,30.205 124.6093,31.311 126.6733,32.083 C128.7813,32.868 130.9953,33.266 133.2523,33.266 C134.7973,33.266 136.3153,33.055 137.7673,32.64 C139.2183,32.227 140.5223,31.583 141.6443,30.726 C142.7663,29.871 143.6723,28.77 144.3363,27.457 C145.0003,26.144 145.3353,24.564 145.3353,22.758 C145.3353,21.197 145.0233,19.877 144.4073,18.835 C143.7873,17.788 142.9943,16.898 142.0523,16.189"
                        id="s" />
                    <path
                        d="M91.1007,16.6333 L85.3227,16.6333 L85.3227,6.9483 L91.1007,6.9483 C93.7277,6.9483 95.8577,9.0443 95.8577,11.6313 L95.8577,11.9503 C95.8577,14.5373 93.7277,16.6333 91.1007,16.6333 M91.1007,0.4913 L79.1207,0.4913 L78.7637,32.7753 L85.3227,32.7753 L85.3227,23.0903 L90.1697,23.0903 L94.8797,32.9793 L102.3727,33.0243 L96.7367,21.5523 C97.3887,21.1623 98.0737,20.7103 98.1827,20.6213 C100.8747,18.4883 102.4167,15.3283 102.4167,11.9503 L102.4167,11.6313 C102.4167,5.4793 97.3507,0.4913 91.1007,0.4913"
                        id="r" />
                    <polygon id="i"
                        points="50.8558 32.7757 57.4158 32.7757 57.4158 0.4917 50.8558 0.4917" />
                    <path
                        d="M11.962,19.8237 L16.06,8.2397 L16.073,8.2737 L16.244,8.7527 L20.19,19.8237 L11.962,19.8237 Z M24.804,32.7747 L32.185,32.7747 L20.38,0.4907 L11.819,0.4907 L0,32.7747 L7.379,32.7747 L9.88,25.7097 L22.281,25.6937 L24.804,32.7747 Z"
                        id="a" />
                </g>
                <g id="mark">
                    <mask fill="white" id="mask-2">
                        <use xlink:href="#path-1" />
                    </mask>
                    <use fill="#004BFF" id="mask" xlink:href="#path-1" />
                    <path
                        d="M70.479,32.949 L37.53,2.13162821e-14 L1.42108547e-14,37.53 L13.347,50.876 L13.45,50.979 C19.306,44.192 27.964,39.891 37.632,39.891 C47.3,39.891 55.958,44.192 61.815,50.979 L75.162,37.633 L70.479,32.949 Z"
                        fill="#004BFF" id="full" mask="url(#mask-2)" />
                    <path
                        d="M53.5822,29.9696 C36.9472,29.9696 22.2502,38.2356 13.3472,50.8756 L13.4502,50.9786 C19.3062,44.1926 27.9642,39.8906 37.6322,39.8906 C47.3002,39.8906 55.9582,44.1926 61.8142,50.9786 L75.1622,37.6316 L70.4782,32.9486 C65.2092,31.0226 59.5192,29.9696 53.5822,29.9696"
                        fill="#000080" id="swoop" mask="url(#mask-2)" />
                    <g id="arch" mask="url(#mask-2)">
                        <use fill="black" fill-opacity="1" filter="url(#filter-4)"
                            xlink:href="#path-3" />
                        <use fill="#004BFF" fill-rule="evenodd" xlink:href="#path-3" />
                    </g>
                    <path
                        d="M41.417,19.111 C41.417,21.202 39.723,22.897 37.632,22.897 C35.542,22.897 33.847,21.202 33.847,19.111 C33.847,17.021 35.542,15.326 37.632,15.326 C39.723,15.326 41.417,17.021 41.417,19.111 Z"
                        fill="#FFFFFF" id="circle" mask="url(#mask-2)" />
                </g>
            </g>
        </g>
    </g>
</svg>
